<svg enable-background="new 0 0 442.9 68.5" viewBox="0 0 442.9 68.5" xmlns="http://www.w3.org/2000/svg"><g clip-rule="evenodd" fill-rule="evenodd"><path d="m0 68.5h111.9v-68.5h-111.9z" fill="#f28f27"/><path d="m6.9 50.3h30.3l24.4-41.2h48l-4.8 8.2h-39l-24 42.1h-39.5z" fill="#fefefe"/><g fill="#004995"><path d="m66.9 16h38.1l-4.5 8.2h-29.4l-13.7 25.9h20.1l4.6-8.4h-10.5l4.6-8.4h19.4l-14.2 26.1h-38z"/><g transform="translate(57 3)"><path d="m74.7 36.2c4.6 5.1 8.5 7.7 11.8 7.7 2.4 0 3.8-1.3 3.8-3.5 0-3.4-3.3-4.5-7.4-7.2-5.9-3.8-8.8-8.5-8.8-14.5 0-8.2 6.2-14.1 15.7-14.1 3.6 0 6.5 1.3 8.9 1.3.5 0 1-.1 1.5-.2v15.3c-1.9-3.4-4.9-5.2-7.3-5.2-1.7 0-2.9 1.2-2.9 2.7 0 .6.2 1.3.6 1.9 1.2 1.8 4.5 2.9 8.1 5.6 5.1 3.7 7.4 8.4 7.4 14.6 0 9.7-7 16.4-17.6 16.4-4 0-7.3-1.4-9.8-1.4-1.2 0-2.4.2-3.8.7v-20.1z"/><path d="m133 47.3c2.4 0 4.9-.8 7.4-2.6v11.9c-.6-.2-1.2-.3-1.8-.3-2.2 0-4.3 1-6.6 1-11.1 0-18.7-8.1-18.7-19.2 0-5.6 2.1-10.5 6.2-14.4 3.1-2.9 7-4.5 11.3-4.5 6.2 0 11.6 2.9 15 8.2 2.4 3.7 2.7 6.8 2.9 9.8.1 1.2.1 2.9.7 5.2h-23.4c1.2 3.3 3.5 4.9 7 4.9zm3.7-12.5c-.8-3.3-2.7-4.9-5.4-4.9-2.5 0-4.8 1.9-5.1 4.9z"/><path d="m193 55.9h-12.8v-2.6c-2.1 2.3-4.8 3.3-8.3 3.3-8.6 0-15.9-7.9-15.9-18.5 0-5 1.7-9.5 4.9-13 3.6-4 7.9-5.9 13.1-5.9 3.8 0 7.3 1 10.5 2.9 3.6 2.2 5.9 4.2 8.2 4.8-.9.9-1.3 1.8-1.3 2.7v22.8c0 1.5.1 2.4 1.6 3.5m-18.6-24.1c-3.1 0-5.7 2.7-5.7 6.1 0 3.5 2.5 6.1 5.9 6.1 1.5 0 2.8-.6 4.1-1.7v-8.6c-1.4-1.2-2.8-1.9-4.3-1.9"/><path d="m216.4 20.6h5.9v11.3c-1.2-.6-2.5-.8-4.2-.8-.5 0-1.1 0-1.7.1v20.3c0 1.7.4 3.1 1.4 4.5h-14.3c.7-1.1 1-2.3 1-3.8v-21h-5.5l17.4-20.9z"/><path d="m231.2 20.6h13.5v3.8c1.8-3.9 5.7-3.3 9.2-5.3v14.5c-1.3-.5-2.5-.8-3.6-.8-3.8 0-5.5 2.1-5.5 6.5v13.9c0 1.1.4 1.9 1.6 2.7h-15.2c1.1-.8 1.6-1.8 1.6-3v-29c.1-1.3 0-2.2-1.6-3.3"/><path d="m297.8 55.9h-12.8v-2.6c-2.1 2.3-4.8 3.3-8.3 3.3-8.6 0-15.9-7.9-15.9-18.5 0-5 1.7-9.5 4.9-13 3.6-4 7.9-5.9 13.1-5.9 3.8 0 7.3 1 10.5 2.9 3.6 2.2 5.9 4.2 8.2 4.8-.9.9-1.3 1.8-1.3 2.7v22.8c0 1.5.1 2.4 1.6 3.5m-18.6-24.1c-3.1 0-5.7 2.7-5.7 6.1 0 3.5 2.5 6.1 5.9 6.1 1.5 0 2.8-.6 4.1-1.7v-8.6c-1.4-1.2-2.8-1.9-4.3-1.9"/><path d="m328.1 8.3c0-1-.5-2-1.6-2.7h14.2v41.2c0 .9.4 1.8 1.3 2.7-1.9.6-3.1 1.5-4 2.1-4.4 2.9-8.4 5.6-14.1 5.6s-10-1.9-13.7-6.1c-3.2-3.6-4.8-7.7-4.8-12.7 0-11.4 7.7-19.2 17-19.2 1.5 0 3.4.3 5.7.8zm0 25.8c-1.3-1.1-2.6-1.7-4.1-1.7-3.5 0-5.9 2.6-5.9 6.3 0 3.3 2.6 5.9 5.7 5.9 1.5 0 2.9-.6 4.4-1.9v-8.6z"/><path d="m369.6 47.3c2.4 0 4.9-.8 7.4-2.6v11.9c-.6-.2-1.2-.3-1.8-.3-2.2 0-4.3 1-6.6 1-11.1 0-18.7-8.1-18.7-19.2 0-5.6 2.1-10.5 6.2-14.4 3.1-2.9 7-4.5 11.3-4.5 6.2 0 11.6 2.9 15 8.2 2.4 3.7 2.7 6.8 2.9 9.8.1 1.2.1 2.9.7 5.2h-23.4c1.1 3.3 3.5 4.9 7 4.9zm3.6-12.5c-.8-3.3-2.7-4.9-5.4-4.9-2.5 0-4.8 1.9-5.1 4.9z"/></g></g></g></svg>